<mxfile host="app.diagrams.net" modified="2024-05-12T14:21:19.095Z" agent="Mozilla/5.0 (X11; Linux x86_64) AppleWebKit/537.36 (KHTML, like Gecko) Chrome/120.0.0.0 YaBrowser/24.1.0.0 Safari/537.36" etag="QO1sjszDq7Gk8LCvKY0x" version="24.4.0" type="device">
  <diagram name="Страница — 1" id="97Y4oNsTNhEOl0SbWoBB">
    <mxGraphModel dx="1050" dy="583" grid="1" gridSize="10" guides="1" tooltips="1" connect="1" arrows="1" fold="1" page="1" pageScale="1" pageWidth="827" pageHeight="1169" math="0" shadow="0">
      <root>
        <mxCell id="0" />
        <mxCell id="1" parent="0" />
        <mxCell id="BvzLAVBnAivThxmqPywi-1" value="Диаграмма состояний датасета" style="text;html=1;align=center;verticalAlign=middle;resizable=0;points=[];autosize=1;strokeColor=none;fillColor=none;" vertex="1" parent="1">
          <mxGeometry x="270" y="30" width="200" height="30" as="geometry" />
        </mxCell>
        <mxCell id="BvzLAVBnAivThxmqPywi-2" value="" style="ellipse;html=1;shape=startState;fillColor=#000000;strokeColor=#ff0000;" vertex="1" parent="1">
          <mxGeometry x="53" y="70" width="30" height="30" as="geometry" />
        </mxCell>
        <mxCell id="BvzLAVBnAivThxmqPywi-3" value="" style="edgeStyle=orthogonalEdgeStyle;html=1;verticalAlign=bottom;endArrow=open;endSize=8;strokeColor=#ff0000;rounded=0;" edge="1" source="BvzLAVBnAivThxmqPywi-2" parent="1">
          <mxGeometry relative="1" as="geometry">
            <mxPoint x="68" y="160" as="targetPoint" />
          </mxGeometry>
        </mxCell>
        <mxCell id="BvzLAVBnAivThxmqPywi-4" value="" style="ellipse;html=1;shape=endState;fillColor=#000000;strokeColor=#ff0000;" vertex="1" parent="1">
          <mxGeometry x="713" y="585" width="30" height="30" as="geometry" />
        </mxCell>
        <mxCell id="BvzLAVBnAivThxmqPywi-5" value="У заказчика" style="rounded=1;whiteSpace=wrap;html=1;arcSize=40;fontColor=#000000;fillColor=#ffffc0;strokeColor=#ff0000;" vertex="1" parent="1">
          <mxGeometry x="8" y="162" width="120" height="40" as="geometry" />
        </mxCell>
        <mxCell id="BvzLAVBnAivThxmqPywi-6" value="" style="edgeStyle=orthogonalEdgeStyle;html=1;verticalAlign=bottom;endArrow=open;endSize=8;strokeColor=#ff0000;rounded=0;" edge="1" source="BvzLAVBnAivThxmqPywi-5" parent="1">
          <mxGeometry relative="1" as="geometry">
            <mxPoint x="68" y="230" as="targetPoint" />
          </mxGeometry>
        </mxCell>
        <mxCell id="BvzLAVBnAivThxmqPywi-7" value="Загружен" style="rounded=1;whiteSpace=wrap;html=1;arcSize=40;fontColor=#000000;fillColor=#ffffc0;strokeColor=#ff0000;" vertex="1" parent="1">
          <mxGeometry x="8" y="230" width="120" height="40" as="geometry" />
        </mxCell>
        <mxCell id="BvzLAVBnAivThxmqPywi-8" value="" style="edgeStyle=orthogonalEdgeStyle;html=1;verticalAlign=bottom;endArrow=open;endSize=8;strokeColor=#ff0000;rounded=0;entryX=0.5;entryY=0;entryDx=0;entryDy=0;" edge="1" source="BvzLAVBnAivThxmqPywi-7" parent="1" target="BvzLAVBnAivThxmqPywi-10">
          <mxGeometry relative="1" as="geometry">
            <mxPoint x="68" y="360" as="targetPoint" />
          </mxGeometry>
        </mxCell>
        <mxCell id="BvzLAVBnAivThxmqPywi-9" value="Получить данные" style="text;html=1;align=center;verticalAlign=middle;resizable=0;points=[];autosize=1;strokeColor=none;fillColor=none;" vertex="1" parent="1">
          <mxGeometry x="66" y="202" width="120" height="30" as="geometry" />
        </mxCell>
        <mxCell id="BvzLAVBnAivThxmqPywi-10" value="Предобработан" style="rounded=1;whiteSpace=wrap;html=1;arcSize=40;fontColor=#000000;fillColor=#ffffc0;strokeColor=#ff0000;" vertex="1" parent="1">
          <mxGeometry x="138" y="280" width="120" height="40" as="geometry" />
        </mxCell>
        <mxCell id="BvzLAVBnAivThxmqPywi-11" value="" style="edgeStyle=orthogonalEdgeStyle;html=1;verticalAlign=bottom;endArrow=open;endSize=8;strokeColor=#ff0000;rounded=0;entryX=0.5;entryY=0;entryDx=0;entryDy=0;" edge="1" source="BvzLAVBnAivThxmqPywi-10" parent="1" target="BvzLAVBnAivThxmqPywi-12">
          <mxGeometry relative="1" as="geometry">
            <mxPoint x="198" y="430" as="targetPoint" />
          </mxGeometry>
        </mxCell>
        <mxCell id="BvzLAVBnAivThxmqPywi-12" value="Исследован" style="rounded=1;whiteSpace=wrap;html=1;arcSize=40;fontColor=#000000;fillColor=#ffffc0;strokeColor=#ff0000;" vertex="1" parent="1">
          <mxGeometry x="278" y="330" width="120" height="40" as="geometry" />
        </mxCell>
        <mxCell id="BvzLAVBnAivThxmqPywi-13" value="" style="edgeStyle=orthogonalEdgeStyle;html=1;verticalAlign=bottom;endArrow=open;endSize=8;strokeColor=#ff0000;rounded=0;entryX=0.5;entryY=0;entryDx=0;entryDy=0;" edge="1" source="BvzLAVBnAivThxmqPywi-12" parent="1" target="BvzLAVBnAivThxmqPywi-14">
          <mxGeometry relative="1" as="geometry">
            <mxPoint x="338" y="440" as="targetPoint" />
          </mxGeometry>
        </mxCell>
        <mxCell id="BvzLAVBnAivThxmqPywi-14" value="Очищен" style="rounded=1;whiteSpace=wrap;html=1;arcSize=40;fontColor=#000000;fillColor=#ffffc0;strokeColor=#ff0000;" vertex="1" parent="1">
          <mxGeometry x="402" y="390" width="120" height="40" as="geometry" />
        </mxCell>
        <mxCell id="BvzLAVBnAivThxmqPywi-15" value="" style="edgeStyle=orthogonalEdgeStyle;html=1;verticalAlign=bottom;endArrow=open;endSize=8;strokeColor=#ff0000;rounded=0;entryX=0.5;entryY=0;entryDx=0;entryDy=0;" edge="1" source="BvzLAVBnAivThxmqPywi-14" parent="1" target="BvzLAVBnAivThxmqPywi-16">
          <mxGeometry relative="1" as="geometry">
            <mxPoint x="462" y="520" as="targetPoint" />
          </mxGeometry>
        </mxCell>
        <mxCell id="BvzLAVBnAivThxmqPywi-16" value="Аугментирован" style="rounded=1;whiteSpace=wrap;html=1;arcSize=40;fontColor=#000000;fillColor=#ffffc0;strokeColor=#ff0000;" vertex="1" parent="1">
          <mxGeometry x="548" y="450" width="120" height="40" as="geometry" />
        </mxCell>
        <mxCell id="BvzLAVBnAivThxmqPywi-17" value="" style="edgeStyle=orthogonalEdgeStyle;html=1;verticalAlign=bottom;endArrow=open;endSize=8;strokeColor=#ff0000;rounded=0;entryX=0.5;entryY=0;entryDx=0;entryDy=0;" edge="1" source="BvzLAVBnAivThxmqPywi-16" parent="1" target="BvzLAVBnAivThxmqPywi-19">
          <mxGeometry relative="1" as="geometry">
            <mxPoint x="608" y="585" as="targetPoint" />
            <Array as="points">
              <mxPoint x="728" y="470" />
            </Array>
          </mxGeometry>
        </mxCell>
        <mxCell id="BvzLAVBnAivThxmqPywi-19" value="Готов" style="rounded=1;whiteSpace=wrap;html=1;arcSize=40;fontColor=#000000;fillColor=#ffffc0;strokeColor=#ff0000;" vertex="1" parent="1">
          <mxGeometry x="668" y="520" width="120" height="40" as="geometry" />
        </mxCell>
        <mxCell id="BvzLAVBnAivThxmqPywi-20" value="" style="edgeStyle=orthogonalEdgeStyle;html=1;verticalAlign=bottom;endArrow=open;endSize=8;strokeColor=#ff0000;rounded=0;entryX=0.5;entryY=0;entryDx=0;entryDy=0;" edge="1" source="BvzLAVBnAivThxmqPywi-19" parent="1" target="BvzLAVBnAivThxmqPywi-4">
          <mxGeometry relative="1" as="geometry">
            <mxPoint x="728" y="580" as="targetPoint" />
          </mxGeometry>
        </mxCell>
        <mxCell id="BvzLAVBnAivThxmqPywi-21" value="Предобработать" style="text;html=1;align=center;verticalAlign=middle;resizable=0;points=[];autosize=1;strokeColor=none;fillColor=none;" vertex="1" parent="1">
          <mxGeometry x="117" y="229" width="120" height="30" as="geometry" />
        </mxCell>
        <mxCell id="BvzLAVBnAivThxmqPywi-22" value="Исследование данных&amp;nbsp;" style="text;html=1;align=center;verticalAlign=middle;resizable=0;points=[];autosize=1;strokeColor=none;fillColor=none;" vertex="1" parent="1">
          <mxGeometry x="258" y="270" width="150" height="30" as="geometry" />
        </mxCell>
        <mxCell id="BvzLAVBnAivThxmqPywi-23" value="Очистка данных" style="text;html=1;align=center;verticalAlign=middle;resizable=0;points=[];autosize=1;strokeColor=none;fillColor=none;" vertex="1" parent="1">
          <mxGeometry x="388" y="320" width="110" height="30" as="geometry" />
        </mxCell>
        <mxCell id="BvzLAVBnAivThxmqPywi-24" value="Аугментация данных" style="text;html=1;align=center;verticalAlign=middle;resizable=0;points=[];autosize=1;strokeColor=none;fillColor=none;" vertex="1" parent="1">
          <mxGeometry x="518" y="380" width="140" height="30" as="geometry" />
        </mxCell>
        <mxCell id="BvzLAVBnAivThxmqPywi-25" value="Итоговая сбока датасета" style="text;html=1;align=center;verticalAlign=middle;resizable=0;points=[];autosize=1;strokeColor=none;fillColor=none;" vertex="1" parent="1">
          <mxGeometry x="668" y="440" width="160" height="30" as="geometry" />
        </mxCell>
      </root>
    </mxGraphModel>
  </diagram>
</mxfile>
